<svg width="19" height="19" viewBox="0 0 19 19" fill="none" xmlns="http://www.w3.org/2000/svg">
<path d="M19 7.5C19 6.122 17.879 5 16.5 5C15.121 5 14 6.122 14 7.5C14 8.707 14.86 9.71697 16 9.94897V13C16 15.757 13.757 18 11 18C8.243 18 6 15.757 6 13V11.957C9.005 11.738 11 9.615 11 6.5V2C11 0.729 10.271 0 9 0H8.5C8.224 0 8 0.224 8 0.5C8 0.776 8.224 1 8.5 1H9C9.72 1 10 1.28 10 2V6.5C10 9.233 8.233 11 5.5 11C2.767 11 1 9.233 1 6.5V2C1 1.28 1.28 1 2 1H2.5C2.776 1 3 0.776 3 0.5C3 0.224 2.776 0 2.5 0H2C0.729 0 0 0.729 0 2V6.5C0 9.615 1.995 11.739 5 11.957V13C5 16.309 7.691 19 11 19C14.309 19 17 16.309 17 13V9.94897C18.14 9.71697 19 8.707 19 7.5ZM16.5 9C15.673 9 15 8.327 15 7.5C15 6.673 15.673 6 16.5 6C17.327 6 18 6.673 18 7.5C18 8.327 17.327 9 16.5 9Z" fill="white"/>
</svg>
